<svg width="95" height="84" viewBox="0 0 95 84" fill="none" xmlns="http://www.w3.org/2000/svg">
<path fill-rule="evenodd" clip-rule="evenodd" d="M10.1193 31.885C10.3093 31.907 10.6163 32.047 10.7133 32.155C10.8673 32.323 10.9423 32.759 11.0833 33.096C12.2083 33.86 13.6763 33.717 14.6343 32.751C17.3703 30.558 19.1953 27.957 20.3633 24.595C20.0633 24.3 19.3143 24.471 18.4583 24.297C18.2953 24.264 18.0873 24.208 18.0413 24.039C18.0313 24.001 18.0413 23.984 18.1473 23.87C19.2273 22.691 19.4963 22.682 19.5643 21.815C19.6003 21.354 19.4903 21.178 19.1023 21.096C18.8663 21.046 18.0813 21.315 17.5203 21.373C17.4373 21.381 17.3663 21.381 17.2843 21.371C16.7043 21.299 16.2933 20.771 16.3643 20.192C16.4253 19.672 16.7493 19.093 17.0513 18.339C17.5703 16.454 17.0163 14.577 15.5573 13.276C15.4173 13.258 15.2033 13.336 15.1533 13.457C15.1323 13.506 15.1263 13.573 15.1273 13.65C14.8273 15.817 13.8163 17.563 12.0863 18.902C10.3883 20.388 8.32432 21.335 4.98732 23.613C3.29932 24.767 1.84432 26.042 0.950322 27.591C-0.443678 29.18 -0.285678 31.597 1.30332 32.991C1.95632 33.565 2.67832 33.867 3.54532 33.931C4.95332 34.125 6.31032 33.842 7.59332 33.085C8.47432 32.529 9.34632 31.79 10.1193 31.885Z" fill="black"/>
<path fill-rule="evenodd" clip-rule="evenodd" d="M92.233 65.7308C89.839 60.5038 84.7871 57.2968 78.9321 57.3838C78.9261 43.9108 71.1851 32.4548 58.8231 27.4438C48.2431 23.3078 37.7971 23.1868 27.2901 27.0788C16.8751 30.8308 9.54305 38.3668 6.07805 48.8788C5.86905 49.7128 5.70605 51.0298 5.80605 51.6828C5.87405 52.1318 6.26805 52.6518 6.26805 53.0448C6.26805 53.0488 6.26805 53.0508 6.26805 53.0558C6.26805 53.6708 6.47605 54.3598 6.89605 54.7848C7.44305 55.2028 7.77005 55.4468 8.08505 56.4468H8.05705C8.05005 56.4468 8.01905 56.3658 7.99505 56.4288C6.84105 58.5068 6.12905 60.3338 5.65905 62.6658C5.65305 62.6828 5.64305 62.6508 5.63805 62.6608C5.55405 62.8068 5.44905 62.9028 5.37305 63.0548C5.22205 63.3558 5.07105 65.2438 5.21305 65.7998C5.31905 66.2138 5.88305 66.9818 6.26305 67.0338C6.58805 67.0808 7.69005 66.5098 7.94405 66.3108C8.21905 66.0948 8.44905 65.7948 8.72905 65.5178C9.26805 64.9808 9.24705 65.2748 9.63905 65.9278C10.1501 66.7768 11.1561 66.3738 11.8681 65.7338C12.8431 64.8588 14.9721 62.1808 15.3211 61.5138C15.9021 60.4038 16.0661 59.5498 16.9001 58.9248C16.9361 58.8978 17.0131 58.8538 17.1251 58.7958C22.8961 57.0888 27.2451 53.6448 30.2121 48.4318C30.5481 47.4338 30.0131 46.3528 29.0161 46.0168C28.1391 45.7198 27.1981 46.0978 26.7541 46.8708C25.5341 51.5348 21.9301 54.8218 17.1741 55.6068C16.9001 55.6398 16.6691 55.6878 16.4681 55.8118C16.4481 55.8238 16.4101 55.8648 16.3591 55.9278C15.0621 58.5508 12.8251 60.2288 9.94505 60.7418C9.90705 60.7398 9.89205 60.7328 9.87205 60.7188C9.73105 60.6158 9.72105 60.4088 9.73405 60.2768C9.76505 59.9798 10.0701 58.9798 10.1921 58.7788C10.3031 58.5938 10.4641 58.4848 10.6531 58.4168C12.5871 58.4608 14.2431 57.2898 14.8451 55.4518C14.9651 54.8678 14.8071 54.2568 14.3851 53.7848C13.9751 53.3208 13.8161 53.2218 14.0731 52.5478C14.1891 52.2428 14.4071 51.7958 14.4071 51.7958C14.4071 51.7958 15.0661 52.2558 15.4071 52.3578C15.6181 52.4198 16.2681 52.2068 16.5221 52.0168C16.7431 51.8518 16.8571 51.5518 16.7821 51.2528C16.6551 50.7428 16.4781 50.6518 16.6731 50.3568C16.8001 50.1268 16.9951 49.9798 17.2491 49.9178C17.7351 49.7978 18.2271 50.0958 18.3461 50.5818C18.2331 51.0548 18.4691 51.5548 18.9291 51.7588C19.0171 51.7978 19.0961 51.8208 19.1911 51.8348C20.0401 52.0308 20.9131 51.5498 21.1891 50.7058C21.2391 50.5548 21.2631 50.4218 21.2721 50.2638C25.0561 43.4168 29.86 38.3468 36.549 34.1238C36.554 34.1148 36.5601 34.1058 36.5661 34.0968C37.0361 33.6958 37.0921 32.9908 36.6911 32.5208C36.4421 32.2288 36.0751 32.0978 35.7191 32.1358C31.1501 33.5858 27.5371 35.6498 23.9691 38.8518C19.7031 42.2168 15.8771 45.4478 11.6201 49.2668C10.9861 49.5128 10.1481 49.6098 9.97305 49.1148C9.74405 48.4688 10.6831 46.5328 11.0811 45.9528C11.3681 45.5338 11.7101 45.1988 12.0111 44.7828C12.4531 44.1728 13.2931 42.5988 13.3301 42.1078C13.3681 41.5968 13.1521 40.9668 13.1681 40.4428C13.1901 39.7348 13.5961 39.1768 14.1931 38.7658C14.8671 38.3008 15.3081 38.1418 15.6791 38.3338C15.7991 38.3958 16.1391 38.8438 16.1581 38.9648C16.2701 39.6618 15.6391 40.9168 16.2601 41.1978C16.4101 41.2658 16.8721 41.2978 17.0771 41.2548C17.2191 41.2248 17.5821 40.9688 17.6851 40.8258C18.1151 40.2288 18.3631 39.6778 18.4621 38.9958C18.3281 38.3138 18.4931 37.6708 18.9291 37.1498C22.4731 33.2348 26.4911 30.8098 31.6061 29.4978C35.1861 28.5978 38.853 28.6878 42.6451 29.7668C43.7311 30.5468 44.2671 31.7558 44.1151 33.0848C42.6591 35.6078 40.5621 37.2838 37.7701 38.1538C36.251 38.7938 35.4111 38.9868 34.1771 40.0858C32.0781 41.2098 31.287 43.8218 32.41 45.9208C32.424 45.9468 32.436 45.9708 32.451 45.9948C37.758 50.6208 44.5761 51.9968 51.2421 49.7958C51.9001 49.5858 52.4551 49.3058 52.9741 48.9108C53.4921 48.6958 53.737 48.1018 53.521 47.5838C53.382 47.2508 53.1051 47.0308 52.7491 46.9718C51.5631 46.4098 50.443 46.0218 49.118 45.7058C47.387 45.0988 46.2831 43.3218 46.5811 41.4438C46.3201 40.2478 45.6051 39.2528 44.5121 38.5848C44.5121 38.5848 45.2761 38.0428 45.7051 37.8388C46.1911 37.6078 46.897 37.6178 47.132 37.9028C47.892 38.8278 47.8051 39.5698 48.3291 39.7238C48.3621 39.7338 48.395 39.7418 48.431 39.7478C49.422 39.5968 50.2701 39.5278 51.2741 39.5168C62.4671 39.3928 71.6491 48.3348 71.8381 59.5128C72.9681 61.0088 75.0781 61.3308 76.6011 60.2608C77.4241 59.4318 78.6911 59.3138 79.6411 59.9308C82.6911 60.9508 84.982 62.7438 86.704 65.4598C86.704 65.4598 86.6651 65.4788 86.5971 65.5078C84.2901 66.8268 81.5731 66.6498 79.4921 65.0828C78.1661 63.4418 75.893 63.0178 74.093 63.9558C72.448 65.3858 71.173 66.7258 69.828 68.4408C69.245 68.7528 68.349 68.9568 67.994 68.4488C67.333 67.5028 67.7111 66.5188 68.2781 65.5198C68.9351 64.3608 69.5451 63.6238 69.5691 62.7288C69.4331 61.9678 68.8321 61.4078 68.1101 61.2908C67.6671 61.2568 67.2461 61.3418 66.8811 61.5318C60.6501 65.5018 58.3101 73.2408 61.2971 79.9968C61.3131 79.9908 61.325 79.9838 61.341 79.9758C61.358 79.9668 61.3731 79.9568 61.3881 79.9468C62.9241 77.7378 65.218 76.4808 67.816 76.3828C70.862 76.3668 73.4071 74.2848 74.0551 71.3698C74.2221 70.0278 74.7891 68.9358 75.7941 68.0278C76.2371 67.8438 76.726 67.8568 77.052 68.0128C77.216 68.0898 77.985 68.8878 78.705 69.6138C80.019 71.5318 82.4981 72.1668 84.5741 71.1178C86.0641 70.8008 87.474 70.7318 89.063 70.8888C91.217 71.9878 92.75 73.6918 93.647 75.9918C93.75 76.2258 94.024 76.3328 94.258 76.2298C94.451 76.1448 94.5611 75.9498 94.5311 75.7388C94.1971 72.1678 93.497 69.1308 92.233 65.7308Z" fill="black"/>
<path fill-rule="evenodd" clip-rule="evenodd" d="M25.3985 18.3429C25.5225 18.3269 25.6295 18.3259 25.7545 18.3379C26.6715 18.4249 27.3445 19.2389 27.2575 20.1569C27.1245 21.4109 27.4405 22.5629 28.2025 23.6029C28.8215 23.9569 29.4945 24.1509 30.1685 24.1949C32.3295 24.3239 34.2245 23.0179 34.8755 20.9529C34.9465 20.9579 35.1165 20.9699 35.3615 20.9869C40.7945 22.1189 45.6955 21.7399 50.8905 19.7859C51.2745 19.1369 51.0685 18.5769 50.2045 18.0739C49.7515 17.8109 49.0735 17.6569 48.3825 17.5319C45.9225 17.4589 43.8505 16.4319 42.3015 14.5179C42.2175 14.3039 42.2255 14.0619 42.3375 13.8429C42.5445 13.4339 43.0435 13.2699 43.4525 13.4769C43.7855 13.5559 44.4585 13.7499 45.3085 14.0049C50.2105 16.9129 55.5335 17.4009 60.6445 15.4679C62.4915 15.2959 64.2715 14.0819 64.2715 12.2999V12.2979C65.2715 12.1959 65.7845 12.1529 66.4555 12.0339C67.7025 11.8129 72.3635 10.0039 73.7955 8.32191C74.1935 7.96791 74.2785 7.35891 73.9255 6.95991C73.7105 6.71891 73.4455 6.60691 73.1235 6.64191C73.1235 6.64191 73.1515 6.63091 73.1815 6.60891C75.3855 5.41891 76.8725 3.64991 77.6505 1.27491C77.7855 0.849906 77.5525 0.395906 77.1285 0.262906C76.8975 0.189906 76.6745 0.216906 76.4685 0.340906C75.9125 0.661906 74.6915 1.42991 73.8465 1.98991C66.9085 5.23391 59.7985 5.46391 52.6655 2.67491C46.4075 0.616906 40.5975 -0.192094 33.8725 0.0379057C32.7855 -0.0270943 31.7135 0.0289057 30.6695 0.195906C23.7325 0.886906 18.6555 7.03391 19.2875 13.9779C20.3095 16.4889 22.6585 18.1839 25.3985 18.3429Z" fill="black"/>
<path fill-rule="evenodd" clip-rule="evenodd" d="M56.3709 68.2288C56.3709 68.2288 56.0069 69.4758 55.6719 70.2178C55.4479 70.7128 54.6959 72.0008 54.4029 72.0218C53.9989 68.3768 52.2709 65.3848 50.2709 62.7058C50.2709 62.7038 50.2709 62.7018 50.2709 62.6998C50.2709 62.6898 50.1129 62.9258 50.1109 62.9158C50.5209 60.1718 48.4769 57.4468 45.7319 57.4468H45.7289C45.3319 57.4468 44.8179 57.1928 44.4439 57.2038C43.8829 57.2778 43.4879 57.6708 43.5629 58.2318C43.5779 58.3498 43.6079 58.3858 43.6619 58.4938C43.7249 58.6598 43.7899 58.7948 43.8279 58.9258C43.9379 59.3068 43.7739 59.4618 43.4249 59.4498C43.3139 59.4468 42.8069 59.2528 42.3479 59.0578C39.0429 56.6588 34.9339 56.4058 31.3639 58.3898C30.8819 58.8458 30.6309 59.5248 30.7529 60.2268C30.8169 60.5958 30.9559 60.8948 31.1959 61.1848C31.1919 61.1908 31.1859 61.1988 31.1799 61.2058C30.5399 61.7118 29.9659 62.2638 29.4609 62.8548C25.7839 66.7828 25.8079 72.8428 29.3889 76.7418C30.7539 79.1168 33.5979 80.1118 36.0939 79.2318C38.0209 78.6208 39.0879 76.5638 38.4779 74.6368C38.0919 73.4178 37.2009 72.5588 35.9719 72.2158C35.3889 72.0408 34.8399 72.0088 34.2269 72.1148C34.2159 72.0978 34.2049 72.0828 34.1929 72.0658C33.2609 69.8548 33.5129 67.5278 34.8989 65.5688C37.0439 62.5358 41.2419 61.8148 44.2759 63.9588C44.4089 64.0568 44.4459 64.1248 44.4039 64.2008C44.3769 64.2478 44.2529 64.3278 44.0729 64.4278C41.5419 64.9638 39.9249 67.4518 40.4619 69.9828C40.6519 70.8788 41.0419 71.6248 41.6499 72.2478C42.1639 72.9838 43.1779 73.1638 43.9149 72.6498C44.4029 72.3098 44.6469 71.7498 44.6059 71.1958C44.1079 70.6028 44.0009 69.8338 44.3159 69.1268C44.6009 68.5108 45.1739 68.0388 45.8939 67.9158C47.0569 67.7158 48.1609 68.4968 48.3609 69.6588C49.2449 71.4168 49.2039 73.4808 48.1799 75.2738C48.0319 75.3868 48.0039 75.5978 48.1159 75.7458C48.2229 75.8868 48.4159 75.9218 48.5659 75.8258C48.6669 75.7998 48.7539 75.7578 48.8339 75.7158C48.9379 75.6328 49.0549 75.5798 49.1759 75.5618C49.3439 75.5138 49.5089 75.5378 49.6549 75.6358C49.9199 75.8108 49.9919 76.1678 49.8149 76.4338C48.3309 77.9978 46.7759 79.0848 44.7779 79.9578C43.9209 80.1708 43.3219 80.9798 43.4029 81.8878C43.4919 82.8888 44.3769 83.6278 45.3779 83.5388C45.5259 83.5248 45.6509 83.4998 45.7939 83.4518C50.5669 82.5238 54.3019 79.1568 55.8729 74.8448C56.6999 72.6388 56.8879 70.5718 56.4719 68.2518C56.4169 68.2388 56.3709 68.2288 56.3709 68.2288Z" fill="black"/>
</svg>
